<?xml version="1.0" standalone="no"?><!DOCTYPE svg PUBLIC "-//W3C//DTD SVG 1.1//EN" "http://www.w3.org/Graphics/SVG/1.1/DTD/svg11.dtd"><svg t="1646554587830" class="icon" viewBox="0 0 1024 1024" version="1.1" xmlns="http://www.w3.org/2000/svg" p-id="1478" xmlns:xlink="http://www.w3.org/1999/xlink" width="200" height="200"><defs><style type="text/css"></style></defs><path d="M738.8672 892.4672H286.4128c-86.784 0-157.184-70.3488-157.184-157.184V285.1328c0-86.784 70.3488-157.184 157.184-157.184h452.4544c86.784 0 157.184 70.3488 157.184 157.184v450.0992c0 86.8352-70.3488 157.2352-157.184 157.2352z" fill="#7BD3FF" p-id="1479"></path><path d="M240.4352 722.176V282.3168c0-79.872 108.9024-137.6256 108.9024-137.6256s-0.512-3.0208-1.3312-8.1408c-6.8608 6.144-15.6672 9.7792-25.0368 9.7792h-54.784c-77.1584 0-139.7248 65.6384-139.7248 146.6368v434.1248c0 80.9984 62.5664 146.6368 139.7248 146.6368h20.1216c11.52-1.024 23.296-1.6384 35.2768-1.6384-91.3408-30.72-83.1488-105.6768-83.1488-149.9136z" fill="#AEECFF" p-id="1480"></path><path d="M773.5296 722.176V282.3168c0-79.872-108.9024-137.6256-108.9024-137.6256s0.512-3.0208 1.3312-8.1408c6.8608 6.144 15.6672 9.7792 25.0368 9.7792h54.784c77.1584 0 139.7248 65.6384 139.7248 146.6368v434.1248c0 80.9984-62.5664 146.6368-139.7248 146.6368h-20.1216c-11.52-1.024-23.296-1.6384-35.2768-1.6384 91.3408-30.72 83.1488-105.6768 83.1488-149.9136z" fill="#5AB3FF" p-id="1481"></path><path d="M738.8672 918.0672H286.4128c-100.7616 0-182.784-81.9712-182.784-182.784V285.1328c0-100.7616 81.9712-182.784 182.784-182.784h452.4544c100.7616 0 182.784 81.9712 182.784 182.784v450.0992c0 100.8128-81.9712 182.8352-182.784 182.8352zM286.4128 153.5488c-72.5504 0-131.584 59.0336-131.584 131.584v450.0992c0 72.5504 59.0336 131.584 131.584 131.584h452.4544c72.5504 0 131.584-59.0336 131.584-131.584V285.1328c0-72.5504-59.0336-131.584-131.584-131.584H286.4128z" fill="#434A54" p-id="1482"></path><path d="M361.984 720.9984c-14.1312 0-25.6-11.4688-25.6-25.6V490.9056c0-14.1312 11.4688-25.6 25.6-25.6s25.6 11.4688 25.6 25.6v204.4928c0 14.1312-11.4688 25.6-25.6 25.6zM669.4912 720.9984c-14.1312 0-25.6-11.4688-25.6-25.6V490.9056c0-14.1312 11.4688-25.6 25.6-25.6s25.6 11.4688 25.6 25.6v204.4928c0 14.1312-11.4688 25.6-25.6 25.6zM516.5056 723.3024c-14.1312 0-25.6-11.4688-25.6-25.6V324.6592c0-14.1312 11.4688-25.6 25.6-25.6s25.6 11.4688 25.6 25.6v373.0944c0 14.1312-11.4688 25.5488-25.6 25.5488z" fill="#434A54" p-id="1483"></path></svg>