<?xml version="1.0" standalone="no"?><!DOCTYPE svg PUBLIC "-//W3C//DTD SVG 1.1//EN" "http://www.w3.org/Graphics/SVG/1.1/DTD/svg11.dtd"><svg t="1646630171350" class="icon" viewBox="0 0 1024 1024" version="1.1" xmlns="http://www.w3.org/2000/svg" p-id="1401" xmlns:xlink="http://www.w3.org/1999/xlink" width="200" height="200"><defs><style type="text/css"></style></defs><path d="M512.499025 65.871345c212.215517 0 384.249513 172.033996 384.249513 384.249513 0 51.810807-17.152499 110.111938-48.463345 172.523041-22.506043 44.862378-52.076288 91.199875-86.234573 136.158066l-1.446176 1.898292-2.683758 3.501162a1090.454207 1090.454207 0 0 1-15.27816 19.386137l-2.598924 3.208732-1.241575 1.52602-2.490136 3.04106-2.499119 3.030082-2.506105 3.017108-2.515088 3.00513-2.521076 2.992156-1.263532 1.49009-1.265529 1.487095-2.535048 2.964211-2.541037 2.951236-1.272515 1.46913-3.187774 3.657856-3.193762 3.632904-2.561996 2.889357-2.56499 2.87239-2.567985 2.856421-1.285489 1.421224-2.573973 2.830472c-2.574971 2.821489-5.152936 5.616031-7.732896 8.382628l-2.580959 2.756616-2.581958 2.737653-1.291477 1.362339-1.29048 1.356351-2.582955 2.697731-1.290479 1.34138-2.581957 2.666791-1.291478 1.32641-2.579961 2.634853-2.578963 2.613895c-13.633372 13.764117-27.185903 26.603041-40.385123 38.249295l-1.582908 1.391282-2.485146 2.169762a644.701817 644.701817 0 0 1-8.628149 7.36262c-42.815376 35.881918-77.953747 56.212211-105.492959 56.212211-27.539212 0-62.677583-20.330292-105.493957-56.212211a638.610713 638.610713 0 0 1-6.89154-5.860553l-1.734612-1.502067-2.486144-2.169762c-13.171275-11.550441-26.70584-24.303532-40.332226-37.993793l-1.636803-1.646784-2.577965-2.613895-2.579961-2.634853-1.291478-1.32641-3.226698-3.336483-0.645738-0.671688-2.582956-2.697731-1.290479-1.357349-1.291478-1.361341-2.581957-2.737653a1037.38386 1037.38386 0 0 1-7.738885-8.326737l-2.574971-2.812507-3.216717-3.541084-0.642745-0.710612-2.567984-2.856421-2.56499-2.87239-2.560998-2.889357-3.194761-3.632904-3.187773-3.657856-1.272515-1.46913-2.541037-2.950238-2.535049-2.964211-1.265528-1.487095-1.263532-1.491088-2.521076-2.992156-2.515088-3.004132-2.506105-3.018106-2.499119-3.030082-2.490137-3.04106-1.241575-1.52602a1095.080172 1095.080172 0 0 1-15.368982-19.349208l-2.508101-3.245661-2.684757-3.501162c-34.769092-45.551033-64.857326-92.563212-87.67975-138.056358C145.402012 560.232795 128.249513 501.931665 128.249513 450.120858c0-212.215517 172.033996-384.249513 384.249512-384.249513z m0 63.875244c-176.937419 0-320.374269 143.43685-320.374269 320.374269 0 78.181302 54.22609 187.053661 139.795961 293.174393l3.190768 3.938308 2.948242 3.603961 2.366378 2.870394 2.375361 2.858417 1.189676 1.424219 1.191673 1.420226 2.387337 2.832468 1.196663 1.411243 1.197661 1.407252 3.00014 3.505154 3.008125 3.481201 3.014113 3.458245 0.604819 0.688655 2.417278 2.745638 2.421271 2.729668 2.423267 2.714698 1.820445 2.023049 1.820444 2.015064 2.430254 2.670784 1.215625 1.328405 1.215626 1.324413 2.43225 2.634854 1.216623 1.310441 2.433248 2.607906 1.824437 1.942207 1.825434 1.932226 2.43225 2.558004 1.215625 1.271516 2.431252 2.528063 2.429255 2.507103 2.42726 2.486144 1.212631 1.234589 2.423267 2.454207a860.120078 860.120078 0 0 0 7.730901 7.698963l1.926238 1.888312 2.403306 2.337434c10.694113 10.361762 21.231532 20.000936 31.442588 28.754838l1.457154 1.24457 2.279548 1.931228 2.041014 1.711657 1.802479 1.497076 1.789505 1.474121 1.77653 1.449169 1.764554 1.425217 1.750581 1.400265 1.736608 1.376312 1.721637 1.350362 1.708663 1.327407 0.848343 0.652726 2.104889 1.606861 2.080936 1.565942 1.646784 1.22361 0.818401 0.602822 0.813411 0.594839 1.614846 1.172709 0.801435 0.575875 1.590893 1.13179 0.78846 0.555914 1.564943 1.092866 0.775486 0.535953 1.538994 1.050947 1.520031 1.024998c0.945154 0.630768 1.879329 1.247563 2.802526 1.846394l0.919205 0.59384 1.456156 0.927189 1.437193 0.899244 0.710612 0.439142 1.407252 0.857326c0.931181 0.560904 1.849388 1.103844 2.754619 1.626822 1.656764 0.959127 3.252647 1.8434 4.779665 2.652819l0.758519 0.397224 1.155742 0.594839c2.828476 1.432203 5.397458 2.583953 7.671018 3.447267l0.518986 0.193621 0.281451 0.1028 0.796444 0.279454 0.490043 0.164678 0.673684 0.215579 0.595836 0.179649 0.516991 0.145716 0.434152 0.112779 0.348319 0.082839 0.327361 0.066869 0.139727 0.019961h0.049903l0.139727-0.019961 0.230549-0.044912 0.319377-0.073856 0.406206-0.102799 0.489045-0.134737 0.371275-0.10779 0.622784-0.190627 0.698635-0.228554 0.506012-0.173661 0.538947-0.190627 0.734565-0.27147c2.113871-0.799439 4.484242-1.849388 7.083166-3.14386l0.653723-0.329357 1.156741-0.59384a142.61745 142.61745 0 0 0 5.538183-3.050043c0.602823-0.349318 1.211634-0.705622 1.826433-1.071906l0.928187-0.554916 1.407252-0.857326 0.710612-0.439142 1.436195-0.899244 1.456156-0.928187c0.915212-0.587852 1.842402-1.192671 2.779571-1.813458l0.94216-0.625778 1.520031-1.024998 1.538994-1.050947 0.775485-0.535953 1.564944-1.092866 0.78846-0.555914 0.79345-0.562901 1.598877-1.144764 0.805427-0.582861 1.622831-1.184687 0.818401-0.602822 1.646784-1.22361 1.662752-1.250558 0.838363-0.633762 0.840358-0.641747 1.692694-1.30046 1.708663-1.326409 1.721638-1.350362 1.736608-1.376312 1.750581-1.400265 1.763555-1.425217 1.77653-1.449169 1.790503-1.474121 1.80248-1.497076 2.041014-1.711657 2.279547-1.931228c10.180117-8.669068 20.694581-18.231392 31.372725-28.524289l1.527018-1.475119 2.403306-2.337434a849.088624 849.088624 0 0 0 7.72092-7.641076l1.936218-1.946199 2.423268-2.454207 1.212631-1.234589 2.427259-2.485146 2.429256-2.508101 1.215625-1.261536 2.431252-2.538043 2.432249-2.558004 1.825435-1.932226 1.824437-1.942207 2.433247-2.607906 1.217622-1.310441 2.431252-2.634854 1.823438-1.988117 1.823439-1.998097 2.428257-2.679766 1.21363-1.34637 1.213629-1.350363 2.423267-2.7137 2.421271-2.729668 2.417279-2.74464 1.207641-1.379306 2.411291-2.768592 3.008125-3.481201 3.00014-3.504156 1.197661-1.407252 1.196663-1.412241 2.387337-2.832468 1.191672-1.420226 1.189677-1.424219 2.37536-2.858417 2.366379-2.870394 2.360389-2.881372 1.176702-1.445177C777.545357 639.376218 832.873294 529.092616 832.873294 450.120858c0-176.937419-143.43685-320.374269-320.374269-320.374269z m0 125.754386c106.38322 0 192.623782 86.240561 192.623782 192.623781s-86.240561 192.623782-192.623782 192.623782-192.623782-86.240561-192.623781-192.623782 86.240561-192.623782 192.623781-192.623781z m0 63.875243c-71.106121 0-128.748538 57.642417-128.748538 128.748538s57.642417 128.748538 128.748538 128.748538 128.748538-57.642417 128.748538-128.748538-57.642417-128.748538-128.748538-128.748538z" p-id="1402" fill="#ffffff"></path></svg>