<?xml version="1.0" standalone="no"?><!DOCTYPE svg PUBLIC "-//W3C//DTD SVG 1.1//EN" "http://www.w3.org/Graphics/SVG/1.1/DTD/svg11.dtd"><svg t="1646554534003" class="icon" viewBox="0 0 1024 1024" version="1.1" xmlns="http://www.w3.org/2000/svg" p-id="1328" xmlns:xlink="http://www.w3.org/1999/xlink" width="200" height="200"><defs><style type="text/css"></style></defs><path d="M702.0032 897.024h-462.848c-59.4944 0-107.7248-48.2304-107.7248-107.7248V257.6896c0-66.6624 54.0672-120.7296 120.7296-120.7296h329.1648c66.6624 0 120.7296 54.0672 120.7296 120.7296V897.024z" fill="#B3F4EF" p-id="1329"></path><path d="M511.3344 144.3328s96.1024 41.8304 96.1024 119.8592v625.3056h101.7856V270.9504c0-75.776-56.5248-135.68-197.888-126.6176z" fill="#94E0DE" p-id="1330"></path><path d="M311.7568 147.712s-89.3952 23.7568-89.3952 113.1008v521.3184c0 41.8304 13.3632 99.5328 73.984 111.9744-78.1312 0-170.5984 18.0736-170.5984-116.48V249.5488c0-56.5248 60.6208-130.0992 186.0096-101.8368z" fill="#E9FFFF" p-id="1331"></path><path d="M798.8224 897.024h-96.256V404.0704h119.1424c42.8032 0 77.4656 34.6624 77.4656 77.4656v315.0848c0 55.4496-44.9536 100.4032-100.352 100.4032z" fill="#FFD16C" p-id="1332"></path><path d="M770.048 412.3136s58.7776 7.5264 58.7776 58.7776v315.136c0 35.4304-3.0208 87.4496-73.1136 99.5328 82.944 0 135.68-9.7792 135.68-110.7968V461.3632c0.0512-38.5024-66.304-58.0608-121.344-49.0496z" fill="#FFC50B" p-id="1333"></path><path d="M821.7088 378.4704h-94.1056V257.6896c0-80.6912-65.6384-146.3296-146.3296-146.3296H252.16c-80.6912 0-146.3296 65.6384-146.3296 146.3296v531.6096c0 73.5232 59.8016 133.3248 133.3248 133.3248h462.848c0.1024 0 0.2048-0.0512 0.256-0.0512s0.2048 0.0512 0.256 0.0512h96.256c69.4272 0 125.952-56.5248 125.952-125.952V481.536c0.0512-56.832-46.1824-103.0656-103.0144-103.0656z m-145.3056 492.9536h-437.248c-45.2608 0-82.1248-36.8128-82.1248-82.1248V257.6896c0-52.4288 42.6496-95.1296 95.1296-95.1296h329.1648c52.4288 0 95.1296 42.6496 95.1296 95.1296V871.424z m197.1712-74.8032c0 41.216-33.536 74.752-74.752 74.752h-70.656V429.6704h93.5424c28.5696 0 51.8656 23.2448 51.8656 51.8656v315.0848z" fill="#434A54" p-id="1334"></path><path d="M551.68 453.9392H293.9392c-14.1312 0-25.6-11.4688-25.6-25.6s11.4688-25.6 25.6-25.6h257.7408c14.1312 0 25.6 11.4688 25.6 25.6s-11.4688 25.6-25.6 25.6zM551.68 670.9248H293.9392c-14.1312 0-25.6-11.4688-25.6-25.6s11.4688-25.6 25.6-25.6h257.7408c14.1312 0 25.6 11.4688 25.6 25.6s-11.4688 25.6-25.6 25.6z" fill="#434A54" p-id="1335"></path></svg>