<?xml version="1.0" standalone="no"?><!DOCTYPE svg PUBLIC "-//W3C//DTD SVG 1.1//EN" "http://www.w3.org/Graphics/SVG/1.1/DTD/svg11.dtd"><svg t="1656741590544" class="icon" viewBox="0 0 1024 1024" version="1.1" xmlns="http://www.w3.org/2000/svg" p-id="7511" xmlns:xlink="http://www.w3.org/1999/xlink" width="200" height="200"><defs><style type="text/css">@font-face { font-family: feedback-iconfont; src: url("//at.alicdn.com/t/font_1031158_u69w8yhxdu.woff2?t=1630033759944") format("woff2"), url("//at.alicdn.com/t/font_1031158_u69w8yhxdu.woff?t=1630033759944") format("woff"), url("//at.alicdn.com/t/font_1031158_u69w8yhxdu.ttf?t=1630033759944") format("truetype"); }
</style></defs><path d="M150.528 431.104q37.888 0 58.368 24.064t20.48 51.712l0 11.264q0 34.816-17.92 58.88t-59.904 24.064l-7.168 0q-38.912 0-61.952-21.504t-23.04-59.392l0-14.336q0-13.312 5.632-26.624t15.872-24.064 25.6-17.408 33.792-6.656l10.24 0zM519.168 431.104q37.888 0 58.368 24.064t20.48 51.712l0 11.264q0 34.816-17.92 58.88t-59.904 24.064l-7.168 0q-38.912 0-61.952-21.504t-23.04-59.392l0-14.336q0-13.312 5.632-26.624t15.872-24.064 25.6-17.408 33.792-6.656l10.24 0zM887.808 431.104q37.888 0 58.368 24.064t20.48 51.712l0 11.264q0 34.816-17.92 58.88t-59.904 24.064l-7.168 0q-38.912 0-61.952-21.504t-23.04-59.392l0-14.336q0-13.312 5.632-26.624t15.872-24.064 25.6-17.408 33.792-6.656l10.24 0z" p-id="7512" fill="#ffffff"></path></svg>