<?xml version="1.0" standalone="no"?><!DOCTYPE svg PUBLIC "-//W3C//DTD SVG 1.1//EN" "http://www.w3.org/Graphics/SVG/1.1/DTD/svg11.dtd"><svg t="1646581708100" class="icon" viewBox="0 0 1024 1024" version="1.1" xmlns="http://www.w3.org/2000/svg" p-id="2533" xmlns:xlink="http://www.w3.org/1999/xlink" width="200" height="200"><defs><style type="text/css"></style></defs><path d="M549.504 73.568a78.464 78.464 0 0 0-75.04 0L132.864 262.048C110.72 273.696 95.744 297.504 96 322.24v379.648c-0.16 25.184 15.552 49.216 38.304 60.704 32.704 17.408 64.48 36.576 97.76 52.8 38.496 18.88 86.592 23.072 125.536 3.36 31.616-16.32 45.664-52.672 45.6-86.048 0.256-125.28 0.064-250.56 0.096-375.872 0.768-5.568-3.424-11.52-9.504-11.392-14.528-0.224-29.12-0.128-43.648-0.032-5.504-0.544-10.88 4.032-10.464 9.568-0.192 124.48 0.032 248.992-0.128 373.504a42.176 42.176 0 0 1-27.904 39.584c-38.336 13.44-147.744-57.6-147.744-57.6a10.784 10.784 0 0 1-6.176-10.56V324.16a11.584 11.584 0 0 1 7.2-11.68c113.472-62.464 226.88-125.056 340.384-187.584a12.288 12.288 0 0 1 13.376 0.032c113.472 62.496 226.912 125.056 340.416 187.52a11.712 11.712 0 0 1 7.168 11.712c0 125.216 0.032 250.496-0.032 375.712a10.784 10.784 0 0 1-6.08 10.688c-112.448 62.112-226.144 122.24-337.568 186.176-4.832 2.784-10.336 5.952-15.808 2.88-29.28-16.224-58.24-33.056-87.424-49.408-3.2-1.984-7.232-2.848-10.56-0.64-13.056 6.912-25.376 12.48-40.416 18.464-21.12 8.352-17.728 11.776 1.28 22.848 34.176 19.328 68.384 38.592 102.528 57.92 22.496 14.048 52.672 15.04 75.904 2.08 113.856-62.752 227.712-125.6 341.6-188.352 22.656-11.552 38.464-35.488 38.304-60.672V322.208c0.224-24.192-14.144-47.584-35.648-59.392-114.24-63.168-228.544-126.144-342.816-189.248z" fill="#8CC84B" p-id="2534"></path><path d="M721.344 358.592c-44.704-23.904-97.856-25.184-147.52-22.08-35.904 3.584-73.632 13.472-99.776 39.2-26.816 25.856-32.64 67.616-19.904 101.376 9.12 23.84 32.096 39.36 55.84 47.552 30.624 10.816 62.72 14.144 94.912 17.472 29.312 3.072 58.656 6.08 86.816 14.816 11.52 3.84 24.96 9.664 28.48 22.176 3.232 14.848-0.32 32.096-12.384 42.4-38.24 30.272-144.672 25.632-182.464 1.792-15.296-10.144-21.888-28.128-24.576-45.248-0.288-5.344-4.576-10.24-10.368-9.824a2193.792 2193.792 0 0 0-43.52 0c-5.088-0.448-10.336 3.168-10.624 8.32-2.976 78.464 69.056 112.64 136.64 120.192 38.656 3.68 78.112 3.456 116.16-4.8 28.576-6.528 57.248-18.528 76.928-40.544 24.256-26.752 29.024-66.592 18.144-99.936-8.32-24.864-32.096-40.832-56.384-49.024-33.056-11.328-72.256-17.44-102.176-20.288-43.52-4.16-95.232-2.432-107.552-31.04-4.896-14.976-0.736-33.568 13.024-42.784 36.416-24.672 110.496-21.408 148.224-2.944 17.28 8.64 27.328 26.464 31.456 44.448 0.768 5.28 4.32 10.784 10.432 10.56 14.4 0.256 28.832 0.064 43.232 0.064 4.96 0.352 10.4-2.432 11.36-7.488-0.64-37.568-19.808-76.032-54.4-94.368z" fill="#8CC84B" p-id="2535"></path></svg>