<?xml version="1.0" standalone="no"?><!DOCTYPE svg PUBLIC "-//W3C//DTD SVG 1.1//EN" "http://www.w3.org/Graphics/SVG/1.1/DTD/svg11.dtd"><svg t="1656741496609" class="icon" viewBox="0 0 1024 1024" version="1.1" xmlns="http://www.w3.org/2000/svg" p-id="7325" xmlns:xlink="http://www.w3.org/1999/xlink" width="200" height="200"><defs><style type="text/css">@font-face { font-family: feedback-iconfont; src: url("//at.alicdn.com/t/font_1031158_u69w8yhxdu.woff2?t=1630033759944") format("woff2"), url("//at.alicdn.com/t/font_1031158_u69w8yhxdu.woff?t=1630033759944") format("woff"), url("//at.alicdn.com/t/font_1031158_u69w8yhxdu.ttf?t=1630033759944") format("truetype"); }
</style></defs><path d="M380.928 67.584q26.624 0 45.568 18.944t18.944 45.568l0 256q0 26.624-18.944 45.568t-45.568 18.944l-256 0q-26.624 0-45.056-18.944t-18.432-45.568l0-256q0-26.624 18.432-45.568t45.056-18.944l256 0zM380.928 580.608q26.624 0 45.568 18.432t18.944 45.056l0 256q0 26.624-18.944 45.568t-45.568 18.944l-256 0q-26.624 0-45.056-18.944t-18.432-45.568l0-256q0-26.624 18.432-45.056t45.056-18.432l256 0zM893.952 67.584q26.624 0 45.056 18.944t18.432 45.568l0 256q0 26.624-18.432 45.568t-45.056 18.944l-256 0q-26.624 0-45.568-18.944t-18.944-45.568l0-256q0-26.624 18.944-45.568t45.568-18.944l256 0zM893.952 580.608q26.624 0 45.056 18.432t18.432 45.056l0 256q0 26.624-18.432 45.568t-45.056 18.944l-256 0q-26.624 0-45.568-18.944t-18.944-45.568l0-256q0-26.624 18.944-45.056t45.568-18.432l256 0z" p-id="7326" fill="#ffffff"></path></svg>