<?xml version="1.0" standalone="no"?><!DOCTYPE svg PUBLIC "-//W3C//DTD SVG 1.1//EN" "http://www.w3.org/Graphics/SVG/1.1/DTD/svg11.dtd"><svg t="1646562442009" class="icon" viewBox="0 0 1024 1024" version="1.1" xmlns="http://www.w3.org/2000/svg" p-id="36102" xmlns:xlink="http://www.w3.org/1999/xlink" width="200" height="200"><defs><style type="text/css"></style></defs><path d="M1020.1856 443.045888c-4.01408-21.634048-25.494528-43.657216-47.776768-48.529408l-16.662528-3.702784c-39.144448-11.49952-73.873408-36.640768-95.955968-73.670656-22.081536-37.225472-27.300864-79.517696-17.665024-118.301696l5.219328-15.20128c6.62528-21.049344-2.00704-50.087936-19.472384-64.510976 0 0-15.657984-12.862464-59.82208-37.614592-44.164096-24.556544-63.235072-31.378432-63.235072-31.378432-21.479424-7.600128-51.591168-0.38912-67.249152 15.787008l-11.64288 12.0832c-29.710336 27.285504-69.658624 43.851776-113.82272 43.851776-44.164096 0-84.513792-16.760832-114.224128-44.240896l-11.241472-11.69408C371.177472 49.74592 340.865024 42.534912 319.3856 50.13504c0 0-19.27168 6.821888-63.435776 31.378432-44.164096 24.946688-59.621376 37.810176-59.621376 37.810176-17.46432 14.227456-26.09664 43.071488-19.472384 64.315392l4.81792 15.396864c9.435136 38.784 4.416512 80.88064-17.665024 118.106112-22.08256 37.225472-57.212928 62.56128-96.559104 73.865216l-16.059392 3.508224C29.308928 399.388672 7.6288 421.21728 3.61472 443.045888c0 0-3.613696 19.488768-3.613696 68.992 0 49.504256 3.613696 68.993024 3.613696 68.993024 4.01408 21.828608 25.494528 43.657216 47.776768 48.529408l15.657984 3.508224c39.346176 11.303936 74.677248 36.639744 96.759808 74.059776 22.081536 37.225472 27.300864 79.517696 17.665024 118.301696l-4.617216 15.00672c-6.62528 21.049344 2.00704 50.087936 19.472384 64.510976 0 0 15.657984 12.862464 59.82208 37.614592 44.164096 24.751104 63.235072 31.377408 63.235072 31.377408 21.479424 7.601152 51.591168 0.390144 67.249152-15.785984l11.040768-11.49952c29.91104-27.480064 70.060032-44.240896 114.424832-44.240896 44.3648 0 84.714496 16.956416 114.424832 44.43648l11.040768 11.49952c15.45728 16.175104 45.769728 23.387136 67.249152 15.785984 0 0 19.27168-6.821888 63.435776-31.378432 44.164096-24.751104 59.621376-37.614592 59.621376-37.614592 17.46432-14.227456 26.09664-43.267072 19.472384-64.509952l-4.81792-15.592448c-9.435136-38.58944-4.416512-80.68608 17.665024-117.715968 22.08256-37.225472 57.413632-62.756864 96.759808-74.0608l15.65696-3.508224c22.08256-4.872192 43.762688-26.7008 47.777792-48.528384 0 0 3.613696-19.489792 3.613696-68.993024-0.200704-49.698816-3.8144-69.187584-3.8144-69.187584zM512.100352 710.2464c-112.617472 0-204.157952-88.677376-204.157952-198.208512 0-109.335552 91.339776-198.012928 204.157952-198.012928 112.617472 0 204.157952 88.677376 204.157952 198.208512C716.0576 621.568 624.717824 710.2464 512.100352 710.2464z" p-id="36103" fill="#2c2c2c"></path></svg>