<?xml version="1.0" standalone="no"?><!DOCTYPE svg PUBLIC "-//W3C//DTD SVG 1.1//EN" "http://www.w3.org/Graphics/SVG/1.1/DTD/svg11.dtd"><svg t="1646555265793" class="icon" viewBox="0 0 1024 1024" version="1.1" xmlns="http://www.w3.org/2000/svg" p-id="6690" xmlns:xlink="http://www.w3.org/1999/xlink" width="200" height="200"><defs><style type="text/css"></style></defs><path d="M598.4 560c-9.6 12.8-9.6 32 3.2 44.8 12.8 12.8 32 9.6 41.6-3.2l41.6-51.2c32-41.6 28.8-105.6-12.8-140.8-19.2-16-44.8-25.6-70.4-22.4-25.6 3.2-48 16-64 35.2l-25.6 32-25.6-32c-16-19.2-38.4-32-64-35.2-25.6-3.2-51.2 6.4-70.4 22.4-38.4 35.2-44.8 99.2-12.8 140.8l96 118.4c19.2 22.4 44.8 35.2 70.4 35.2h3.2c28.8 3.2 57.6-12.8 76.8-35.2 9.6-12.8 9.6-32-3.2-44.8-12.8-9.6-32-9.6-41.6 3.2-6.4 9.6-16 12.8-28.8 12.8-9.6 0-22.4-3.2-28.8-12.8l-96-118.4c-12.8-16-9.6-38.4 3.2-51.2 6.4-6.4 16-9.6 25.6-9.6 9.6 0 19.2 6.4 22.4 12.8l70.4 89.6 70.4-89.6c6.4-6.4 12.8-12.8 22.4-12.8 9.6 0 19.2 3.2 25.6 9.6 16 12.8 16 35.2 3.2 51.2l-32 51.2zM796.8 515.2c0 48-12.8 92.8-35.2 134.4 12.8-3.2 22.4-3.2 35.2-3.2 12.8 0 25.6 3.2 35.2 3.2 19.2-41.6 28.8-86.4 28.8-134.4 0-83.2-32-163.2-86.4-224-12.8-12.8-32-16-44.8-3.2-12.8 12.8-12.8 32-3.2 44.8 44.8 54.4 70.4 118.4 70.4 182.4zM297.6 291.2c-12.8-12.8-32-12.8-44.8 0C192 352 160 428.8 160 508.8s32 156.8 89.6 217.6c6.4 6.4 16 9.6 22.4 9.6s16-3.2 22.4-9.6c12.8-12.8 12.8-32 0-44.8C249.6 633.6 224 572.8 224 508.8c0-64 25.6-124.8 73.6-172.8 12.8-12.8 12.8-32 0-44.8z" fill="#666666" p-id="6691"></path><path d="M876.8 201.6c-19.2-22.4-38.4-41.6-60.8-57.6-12.8-12.8-35.2-9.6-44.8 3.2-9.6 12.8-9.6 32 3.2 44.8 19.2 16 35.2 32 51.2 51.2 64 76.8 99.2 176 99.2 275.2 0 57.6-9.6 108.8-32 160 19.2 16 35.2 32 44.8 54.4 32-67.2 48-140.8 48-214.4 6.4-115.2-35.2-230.4-108.8-316.8zM201.6 800C134.4 720 96 620.8 96 515.2c0-105.6 38.4-208 108.8-284.8L243.2 192c12.8-12.8 16-32 3.2-44.8-12.8-12.8-32-16-44.8-3.2-16 12.8-32 28.8-48 44.8C76.8 278.4 32 393.6 32 515.2c0 121.6 44.8 236.8 121.6 326.4l48 48c6.4 6.4 12.8 6.4 22.4 6.4 9.6 0 19.2-3.2 25.6-12.8 12.8-12.8 9.6-35.2-3.2-44.8-16-12.8-32-25.6-44.8-38.4zM752 675.2c-80 0-144 64-144 144s64 144 144 144 144-64 144-144-64-144-144-144z m0 224c-44.8 0-80-35.2-80-80 0-9.6 3.2-19.2 6.4-25.6l102.4 102.4c-9.6 0-19.2 3.2-28.8 3.2z m73.6-51.2l-105.6-105.6c9.6-3.2 19.2-6.4 32-6.4 44.8 0 80 35.2 80 80 0 12.8-3.2 22.4-6.4 32z" fill="#666666" p-id="6692"></path></svg>