<?xml version="1.0" standalone="no"?><!DOCTYPE svg PUBLIC "-//W3C//DTD SVG 1.1//EN" "http://www.w3.org/Graphics/SVG/1.1/DTD/svg11.dtd"><svg t="1646555273348" class="icon" viewBox="0 0 1024 1024" version="1.1" xmlns="http://www.w3.org/2000/svg" p-id="6833" xmlns:xlink="http://www.w3.org/1999/xlink" width="200" height="200"><defs><style type="text/css"></style></defs><path d="M582.4 627.2c-12.8-9.6-32-9.6-41.6 3.2-6.4 9.6-16 12.8-28.8 12.8-9.6 0-22.4-3.2-28.8-12.8l-96-118.4c-12.8-16-9.6-38.4 3.2-51.2 6.4-6.4 16-9.6 25.6-9.6 9.6 0 19.2 6.4 22.4 12.8l70.4 89.6 70.4-89.6c6.4-6.4 12.8-12.8 22.4-12.8 9.6 0 19.2 3.2 25.6 9.6 16 12.8 16 35.2 3.2 51.2l-41.6 51.2c-9.6 12.8-9.6 32 3.2 44.8 12.8 12.8 32 9.6 41.6-3.2l41.6-51.2c32-41.6 28.8-105.6-12.8-140.8-19.2-16-44.8-25.6-70.4-22.4-25.6 3.2-48 16-64 35.2l-25.6 32-25.6-32c-16-19.2-38.4-32-64-35.2-25.6-3.2-51.2 6.4-70.4 22.4-38.4 35.2-44.8 99.2-12.8 140.8l96 118.4c19.2 22.4 44.8 35.2 70.4 35.2h3.2c28.8 3.2 57.6-12.8 76.8-35.2 22.4-16 19.2-35.2 6.4-44.8zM816 688c32-54.4 51.2-112 51.2-176 0-83.2-32-163.2-86.4-224-12.8-12.8-32-16-44.8-3.2-12.8 12.8-12.8 32-3.2 44.8 44.8 51.2 70.4 115.2 70.4 182.4 0 60.8-19.2 118.4-57.6 169.6-9.6 12.8-9.6 35.2 6.4 44.8 6.4 3.2 12.8 6.4 19.2 6.4l32-32c0-6.4 6.4-9.6 12.8-12.8z" fill="#666666" p-id="6834"></path><path d="M224 505.6c0-64 25.6-124.8 73.6-172.8 12.8-12.8 12.8-32 0-44.8-12.8-12.8-32-12.8-44.8 0C195.2 345.6 160 422.4 160 505.6c0 80 32 160 89.6 217.6 6.4 6.4 16 9.6 22.4 9.6s16-3.2 22.4-9.6c12.8-12.8 12.8-32 0-44.8C249.6 630.4 224 566.4 224 505.6zM934.4 700.8c6.4 6.4 9.6 12.8 16 19.2 28.8-64 44.8-134.4 44.8-204.8 0-118.4-41.6-230.4-115.2-320-19.2-22.4-38.4-41.6-60.8-57.6-12.8-12.8-35.2-9.6-44.8 3.2-12.8 12.8-9.6 35.2 3.2 44.8 19.2 16 35.2 32 51.2 51.2 64 76.8 99.2 176 99.2 275.2 0 57.6-9.6 112-32 163.2 16 6.4 28.8 12.8 38.4 25.6z" fill="#666666" p-id="6835"></path><path d="M204.8 796.8C134.4 720 96 617.6 96 515.2c0-105.6 38.4-208 108.8-284.8 12.8-12.8 25.6-28.8 41.6-38.4 12.8-12.8 16-32 3.2-44.8-12.8-19.2-32-19.2-44.8-9.6-16 12.8-32 28.8-48 44.8C76.8 275.2 32 390.4 32 515.2c0 121.6 44.8 236.8 121.6 326.4l48 48c9.6 3.2 16 6.4 22.4 6.4 9.6 0 19.2-3.2 25.6-12.8 12.8-12.8 9.6-35.2-3.2-44.8-16-12.8-28.8-25.6-41.6-41.6zM889.6 745.6c-12.8-12.8-32-12.8-44.8 0l-137.6 137.6-41.6-41.6c-12.8-12.8-32-12.8-44.8 0-12.8 12.8-12.8 32 0 44.8l64 64c6.4 6.4 16 9.6 22.4 9.6 9.6 0 16-3.2 22.4-9.6l160-160c12.8-12.8 12.8-32 0-44.8z" fill="#666666" p-id="6836"></path></svg>