<?xml version="1.0" standalone="no"?><!DOCTYPE svg PUBLIC "-//W3C//DTD SVG 1.1//EN" "http://www.w3.org/Graphics/SVG/1.1/DTD/svg11.dtd"><svg t="1646630163074" class="icon" viewBox="0 0 1024 1024" version="1.1" xmlns="http://www.w3.org/2000/svg" p-id="1203" xmlns:xlink="http://www.w3.org/1999/xlink" width="200" height="200"><defs><style type="text/css"></style></defs><path d="M672.68616 64.873294c17.63855 0 31.937622 14.299072 31.937622 31.937622v31.937622h93.816764c89.494207 0 162.213177 71.823719 163.658355 160.973598L962.120858 292.42885v439.1423c0 89.494207-71.823719 162.213177-160.973599 163.658355L798.440546 895.251462H225.559454c-89.494207 0-162.213177-71.823719-163.658355-160.973598L61.879142 731.57115V292.42885c0-89.494207 71.823719-162.213177 160.973599-163.658355L225.559454 128.748538h95.812866V96.810916c0-17.63855 14.299072-31.937622 31.937622-31.937622 17.63855 0 31.937622 14.299072 31.937621 31.937622v31.937622h255.500975V96.810916c0-17.63855 14.299072-31.937622 31.937622-31.937622zM321.37232 200.608187h-95.812866c-50.203945 0-90.997271 40.291306-91.808686 90.302628L133.738791 292.42885v439.1423c0 50.203945 40.291306 90.997271 90.302628 91.808686L225.559454 823.391813h572.881092c50.203945 0 90.997271-40.291306 91.808686-90.302628L890.261209 731.57115V292.42885c0-50.203945-40.291306-90.997271-90.302628-91.808686L798.440546 200.608187h-93.816764v23.953217c0 17.63855-14.299072 31.937622-31.937622 31.937621-17.63855 0-31.937622-14.299072-31.937622-31.937621v-23.953217H385.247563v23.953217c0 17.63855-14.299072 31.937622-31.937621 31.937621-17.63855 0-31.937622-14.299072-31.937622-31.937621v-23.953217z m414.191033 407.204678c17.63855 0 31.937622 14.299072 31.937622 31.937622 0 17.63855-14.299072 31.937622-31.937622 31.937622H288.436647c-17.63855 0-31.937622-14.299072-31.937622-31.937622 0-17.63855 14.299072-31.937622 31.937622-31.937622h447.126706z m0-191.62573c17.63855 0 31.937622 14.299072 31.937622 31.937621 0 17.63855-14.299072 31.937622-31.937622 31.937622H414.191033c-17.63855 0-31.937622-14.299072-31.937622-31.937622 0-17.63855 14.299072-31.937622 31.937622-31.937621h321.37232z" p-id="1204" fill="#ffffff"></path></svg>