<?xml version="1.0" standalone="no"?><!DOCTYPE svg PUBLIC "-//W3C//DTD SVG 1.1//EN" "http://www.w3.org/Graphics/SVG/1.1/DTD/svg11.dtd"><svg t="1646630152007" class="icon" viewBox="0 0 1024 1024" version="1.1" xmlns="http://www.w3.org/2000/svg" p-id="1001" xmlns:xlink="http://www.w3.org/1999/xlink" width="200" height="200"><defs><style type="text/css"></style></defs><path d="M689.306698 65.871345c17.639548 0 31.937622 14.299072 31.937622 31.937622 0 17.461895-14.01363 31.651181-31.408655 31.933629l-0.528967 0.003993h-409.310565c-46.604975 0-85.587836 41.891181-86.362324 95.126206l-0.011977 1.616842v571.020726c0 53.460585 38.515774 95.886721 84.964055 96.731072l1.411244 0.011976h464.005738c46.605973 0 85.588834-41.891181 86.363322-95.126206l0.011977-1.616842V346.523197c0-17.639548 14.299072-31.937622 31.937621-31.937622 17.461895 0 31.651181 14.01363 31.937622 31.408655v451.516133c0 87.254581-65.316429 159.167127-147.74743 160.596335l-2.503112 0.021957H279.997131c-82.772335 0-148.916148-71.04025-150.230581-157.979446l-0.019961-2.638846V226.489637c0-87.254581 65.316429-159.167127 147.74743-160.596335l2.503112-0.021957h409.310565zM735.563353 639.750487c17.63855 0 31.937622 14.299072 31.937622 31.937622 0 17.63855-14.299072 31.937622-31.937622 31.937622H288.436647c-17.63855 0-31.937622-14.299072-31.937622-31.937622 0-17.63855 14.299072-31.937622 31.937622-31.937622h447.126706zM967.763836 57.287111c12.332912 12.361856 12.433715 32.304904 0.318378 44.790519l-0.371274 0.376265-432.155946 431.157894c-12.486612 12.457669-32.708117 12.433715-45.166783-0.052896-12.332912-12.361856-12.433715-32.304904-0.318379-44.790519l0.371275-0.376265 432.155946-431.157895c12.486612-12.457669 32.708117-12.433715 45.166783 0.052897z" p-id="1002" fill="#ffffff"></path></svg>