<svg id="图层_1" data-name="图层 1" xmlns="http://www.w3.org/2000/svg" viewBox="0 0 40 40"><title>ic_Certification_official_18</title><g id="ic_Certification_official_18" data-name="ic Certification official 18"><g id="fill"><circle id="bg" cx="20" cy="20" r="17.78" style="fill:#ffc62e;stroke:#fff;stroke-width:4.44444465637207px"/><path d="M18.57,29.3a1.27,1.27,0,0,1-.53.14.74.74,0,0,1-.76-1l1.53-6.91H12.49a.79.79,0,0,1-.82-.77.74.74,0,0,1,.35-.62l9.43-9.44a1.14,1.14,0,0,1,.56-.17.78.78,0,0,1,.8.76.72.72,0,0,1-.1.36l-1.52,6.81h6.33a.77.77,0,0,1,.81.76.73.73,0,0,1-.35.63Z" style="fill:#fff;fill-rule:evenodd"/></g></g></svg>